<?xml version="1.0" encoding="UTF-8"?>
<svg id="Layer_1" xmlns="http://www.w3.org/2000/svg" version="1.1" viewBox="0 0 200 200">
  <!-- Generator: Adobe Illustrator 30.1.0, SVG Export Plug-In . SVG Version: 2.1.1 Build 136)  -->
  <defs>
    <style>
      .st0 {
        fill: #6e499d;
      }

      .st1 {
        fill: none;
        stroke: #231f20;
        stroke-miterlimit: 10;
        stroke-width: .2px;
      }

      .st2 {
        fill: #3d59a8;
      }

      .st3 {
        fill: #f9be2a;
      }
    </style>
  </defs>
  <path class="st3" d="M69,121l-50.7-44,65-2.7,24.7-62.9,24.7,62.5,6.3.7c.8.7-4.9,8.5-5.7,9.6-12.3,16.4-31.7,31.3-50.3,39.8-3.8,1.7-16.1,6.4-16.1,6.4.1,0,.6-2.8.6-2.7"/>
  <path class="st3" d="M199,77.4l-51.1,43.1,16.7,66.4-55.5-38.2-55.9,38.6,7.2-29.3c47.3-9.4,91.7-39.1,114.3-82.1l24.3,1.5Z"/>
  <path class="st2" d="M104.7,118.9c24.3-16,46.1-41,50.7-70.7l-15.1-1.7,32.5-36.3,19.1,43.6-13.8-2.9c-6.5,25.4-22.8,47-42.4,63.9-6,5.2-14.1,11.4-21,15.3,1.8-1.9.2-1.6-.6-2.5-2.1-2.7-3.8-3.6-5.9-5.8-1.2-1.2-1.1-3.4-3.5-3Z"/>
  <path class="st2" d="M113.5,131.1c-23.7,14.8-64.8,28.6-92.5,21.9-19.2-4.6-24.6-20.2-14.9-37,2.9-5.1,15.3-19.7,20.5-21.4.2,0,.7-.1.6.2-13.8,11.9-25.3,37-.7,44.4,23,6.9,58.9-7.4,78.3-20.2,2.4-.5,2.4,1.7,3.5,3,2.1,2.2,3.8,3.1,5.9,5.8.8,1,2.9.5.6,2.5-.1,0-.8.5-1.3.8Z"/>
  <path class="st0" d="M110.9,88.8"/>
  <path class="st1" d="M69.6,119.6"/>
</svg>